<svg width="1880" height="426" viewBox="0 0 1880 426" fill="none" xmlns="http://www.w3.org/2000/svg">
<path d="M104.34 327.59V48.4098H0.000351612V-0.0001688H263.2V48.4098H159.33V327.59H104.34ZM230.682 327.59V95.8798H283.322V158.39L273.452 159.8C275.019 146.327 279.562 134.577 287.082 124.55C294.602 114.21 303.689 106.22 314.342 100.58C325.309 94.6265 336.119 91.6498 346.772 91.6498C354.292 91.6498 361.499 92.5898 368.392 94.4698C375.286 96.3498 382.492 99.4832 390.012 103.87L364.632 150.87C361.186 148.677 356.642 146.953 351.002 145.7C345.676 144.133 340.506 143.35 335.492 143.35C328.912 143.35 322.332 144.603 315.752 147.11C309.486 149.617 303.846 153.533 298.832 158.86C293.819 163.873 290.059 170.453 287.552 178.6C285.986 182.987 284.732 188.783 283.792 195.99C283.166 202.883 282.852 212.597 282.852 225.13V327.59H230.682ZM539.557 327.59L535.797 288.58V181.42C535.797 166.38 531.253 155.1 522.167 147.58C513.08 139.747 500.39 135.83 484.097 135.83C471.563 135.83 459.187 138.337 446.967 143.35C435.06 148.05 424.093 155.413 414.067 165.44L384.927 131.13C399.967 117.03 415.947 107.003 432.867 101.05C449.787 94.7832 468.273 91.6498 488.327 91.6498C519.66 91.6498 543.943 99.6398 561.177 115.62C578.723 131.286 587.497 153.22 587.497 181.42V327.59H539.557ZM467.647 331.82C450.413 331.82 435.06 328.687 421.587 322.42C408.427 316.153 398.087 307.38 390.567 296.1C383.36 284.82 379.757 271.66 379.757 256.62C379.757 243.773 382.42 232.65 387.747 223.25C393.387 213.85 400.593 206.487 409.367 201.16C416.887 196.46 425.66 193.17 435.687 191.29C445.713 189.097 456.21 188 467.177 188H540.027V227.01H474.697C469.057 227.01 463.417 227.637 457.777 228.89C452.137 229.83 447.123 231.71 442.737 234.53C439.603 237.037 436.94 240.17 434.747 243.93C432.867 247.69 431.927 252.077 431.927 257.09C431.927 267.117 435.687 275.107 443.207 281.06C451.04 286.7 461.38 289.52 474.227 289.52C485.507 289.52 495.69 287.013 504.777 282C514.177 276.987 521.697 270.093 527.337 261.32C532.977 252.547 535.797 242.677 535.797 231.71L551.777 257.56C548.017 273.853 542.063 287.64 533.917 298.92C525.77 309.887 516.057 318.19 504.777 323.83C493.497 329.157 481.12 331.82 467.647 331.82ZM703.091 331.82C682.411 331.82 664.394 326.65 649.041 316.31C634.001 305.657 622.408 291.243 614.261 273.07C606.114 254.897 602.041 234.373 602.041 211.5C602.041 186.433 606.428 164.97 615.201 147.11C624.288 129.25 636.508 115.62 651.861 106.22C667.214 96.5065 684.291 91.6498 703.091 91.6498C716.251 91.6498 728.314 94.3132 739.281 99.6398C750.561 104.967 759.961 112.8 767.481 123.14C775.314 133.166 780.798 145.543 783.931 160.27L771.711 160.74V-0.0001688H823.881V327.59H771.711V263.2L785.811 259.91C781.738 276.83 775.471 290.617 767.011 301.27C758.864 311.61 749.308 319.287 738.341 324.3C727.374 329.313 715.624 331.82 703.091 331.82ZM715.781 283.88C728.001 283.88 738.654 280.903 747.741 274.95C756.828 268.997 763.878 260.537 768.891 249.57C773.904 238.603 776.411 225.913 776.411 211.5C776.411 197.087 773.904 184.553 768.891 173.9C763.878 162.933 756.828 154.473 747.741 148.52C738.654 142.253 728.001 139.12 715.781 139.12C703.561 139.12 692.751 142.096 683.351 148.05C674.264 154.003 667.058 162.463 661.731 173.43C656.718 184.397 654.211 197.087 654.211 211.5C654.211 225.913 656.718 238.603 661.731 249.57C667.058 260.537 674.264 268.997 683.351 274.95C692.751 280.903 703.561 283.88 715.781 283.88ZM953.649 331.82C934.222 331.82 917.302 328.687 902.889 322.42C888.789 316.153 877.195 307.38 868.109 296.1C859.022 284.82 852.285 272.13 847.899 258.03C843.512 243.617 841.319 228.733 841.319 213.38C841.319 198.026 843.355 183.143 847.429 168.73C851.815 154.003 858.395 140.843 867.169 129.25C875.942 117.657 887.222 108.57 901.009 101.99C914.795 95.0965 931.089 91.6498 949.889 91.6498C967.749 91.6498 983.259 94.7832 996.419 101.05C1009.89 107.003 1021.02 115.463 1029.79 126.43C1038.56 137.083 1044.99 149.303 1049.06 163.09C1053.45 176.876 1055.64 191.603 1055.64 207.27C1055.64 209.463 1055.48 212.597 1055.17 216.67C1055.17 220.743 1054.86 224.817 1054.23 228.89H893.489C894.742 247.377 901.009 261.477 912.289 271.19C923.569 280.903 937.982 285.76 955.529 285.76C968.375 285.76 980.125 283.723 990.779 279.65C1001.43 275.577 1011.15 269.153 1019.92 260.38L1048.59 295.16C1038.88 303.933 1029.16 310.983 1019.45 316.31C1009.74 321.637 999.552 325.553 988.899 328.06C978.559 330.567 966.809 331.82 953.649 331.82ZM1004.41 202.57C1005.04 200.063 1005.35 197.557 1005.35 195.05C1005.66 192.543 1005.82 190.037 1005.82 187.53C1005.82 180.637 1004.57 174.057 1002.06 167.79C999.865 161.523 996.419 156.04 991.719 151.34C987.019 146.326 981.222 142.41 974.329 139.59C967.435 136.457 959.602 134.89 950.829 134.89C938.609 134.89 928.269 137.553 919.809 142.88C911.662 148.207 905.239 155.1 900.539 163.56C896.152 171.707 893.489 180.637 892.549 190.35H1021.33L1004.41 202.57ZM1073.51 327.59V95.8798H1126.15V158.39L1116.28 159.8C1117.84 146.327 1122.39 134.577 1129.91 124.55C1137.43 114.21 1146.51 106.22 1157.17 100.58C1168.13 94.6265 1178.94 91.6498 1189.6 91.6498C1197.12 91.6498 1204.32 92.5898 1211.22 94.4698C1218.11 96.3498 1225.32 99.4832 1232.84 103.87L1207.46 150.87C1204.01 148.677 1199.47 146.953 1193.83 145.7C1188.5 144.133 1183.33 143.35 1178.32 143.35C1171.74 143.35 1165.16 144.603 1158.58 147.11C1152.31 149.617 1146.67 153.533 1141.66 158.86C1136.64 163.873 1132.88 170.453 1130.38 178.6C1128.81 182.987 1127.56 188.783 1126.62 195.99C1125.99 202.883 1125.68 212.597 1125.68 225.13V327.59H1073.51Z" fill="#0FC389"/>
<path d="M1236.56 327.59L1282.62 -0.0001688H1292.02L1247.84 318.66H1405.76L1404.35 327.59H1236.56ZM1500.03 329.94C1481.23 329.94 1464.93 325.867 1451.15 317.72C1437.67 309.573 1427.18 298.293 1419.66 283.88C1412.14 269.153 1408.38 252.233 1408.38 233.12C1408.38 214.947 1411.2 197.557 1416.84 180.95C1422.79 164.03 1431.25 149.147 1442.22 136.3C1453.18 123.14 1466.19 112.8 1481.23 105.28C1496.58 97.4465 1513.66 93.5298 1532.46 93.5298C1551.26 93.5298 1567.39 97.6032 1580.87 105.75C1594.65 113.897 1605.15 125.177 1612.36 139.59C1619.88 154.003 1623.64 170.923 1623.64 190.35C1623.64 208.21 1620.66 225.6 1614.71 242.52C1609.07 259.127 1600.76 274.01 1589.8 287.17C1579.14 300.33 1566.14 310.827 1550.79 318.66C1535.75 326.18 1518.83 329.94 1500.03 329.94ZM1500.5 321.48C1517.73 321.48 1533.24 317.877 1547.03 310.67C1561.13 303.463 1573.19 293.75 1583.22 281.53C1593.24 269.31 1600.92 255.367 1606.25 239.7C1611.57 223.72 1614.24 207.27 1614.24 190.35C1614.24 163.717 1606.87 142.41 1592.15 126.43C1577.42 110.136 1557.21 101.99 1531.52 101.99C1514.28 101.99 1498.62 105.593 1484.52 112.8C1470.73 120.007 1458.82 129.72 1448.8 141.94C1438.77 154.16 1431.09 168.103 1425.77 183.77C1420.44 199.437 1417.78 215.73 1417.78 232.65C1417.78 259.283 1425.14 280.747 1439.87 297.04C1454.59 313.333 1474.8 321.48 1500.5 321.48ZM1727.03 425.82C1712.3 425.82 1698.99 423.157 1687.08 417.83C1675.17 412.817 1664.99 405.453 1656.53 395.74C1648.38 386.34 1642.43 375.06 1638.67 361.9L1646.19 356.26C1651.2 374.433 1660.6 389.16 1674.39 400.44C1688.49 411.72 1706.04 417.36 1727.03 417.36C1745.52 417.36 1762.59 414.383 1778.26 408.43C1793.93 402.477 1807.09 392.607 1817.74 378.82C1828.39 365.033 1835.29 346.233 1838.42 322.42L1849.23 243.93L1850.64 245.34C1840.93 269.153 1826.2 288.423 1806.46 303.15C1787.03 317.877 1765.41 325.24 1741.6 325.24C1723.43 325.24 1707.45 321.01 1693.66 312.55C1680.19 304.09 1669.53 292.497 1661.7 277.77C1654.18 263.043 1650.42 246.437 1650.42 227.95C1650.42 210.403 1653.55 193.64 1659.82 177.66C1666.09 161.68 1674.7 147.423 1685.67 134.89C1696.95 122.043 1709.95 112.016 1724.68 104.81C1739.72 97.2898 1755.86 93.5298 1773.09 93.5298C1796.59 93.5298 1816.17 100.736 1831.84 115.15C1847.82 129.563 1857.38 148.833 1860.51 172.96L1859.57 173.9L1870.38 95.8798H1879.78L1847.82 322.89C1844.37 348.27 1836.85 368.48 1825.26 383.52C1813.67 398.56 1799.41 409.37 1782.49 415.95C1765.57 422.53 1747.08 425.82 1727.03 425.82ZM1743.01 315.84C1759.3 315.84 1774.34 312.393 1788.13 305.5C1801.92 298.293 1813.82 288.737 1823.85 276.83C1834.19 264.923 1842.18 251.607 1847.82 236.88C1853.46 221.84 1856.28 206.487 1856.28 190.82C1856.28 173.587 1852.83 158.39 1845.94 145.23C1839.05 132.07 1829.49 121.73 1817.27 114.21C1805.05 106.376 1790.64 102.46 1774.03 102.46C1758.05 102.46 1743.17 105.906 1729.38 112.8C1715.59 119.693 1703.37 129.093 1692.72 141C1682.38 152.593 1674.23 165.91 1668.28 180.95C1662.64 195.99 1659.82 211.5 1659.82 227.48C1659.82 244.087 1663.27 259.127 1670.16 272.6C1677.05 286.073 1686.77 296.727 1699.3 304.56C1711.83 312.08 1726.4 315.84 1743.01 315.84Z" fill="#0C0C0C"/>
</svg>
